# xmcd CD database file
#
# Track frame offsets:
# 150
# 15257
# 26914
# 39562
# 56151
# 73418
# 86613
# 99101
# 109712
# 124825
# 137784
# 148806
# 162533
# 176886
# 191554
# 206144
#
# Disc length: 2924 seconds
#
# Revision: 2
# Processed by: cddbd v1.5.1PL0 Copyright (c) Steve Scherf et al.
# Submitted via: Feurio! 1.66 - http://www.feurio.com
#
DISCID=f00b6a10
DTITLE=ENGELBERT HUMPERDINCK - THIS IS ENGELBERT
DYEAR=1900
DGENRE=
TTITLE0=RELEASE ME
TTITLE1=UP. UP AND AWAY
TTITLE2=I'M A BETTER MAN
TTITLE3=CAN'T TAKE MY EYES OFF OF YOU
TTITLE4=AQUARIUS-LET THE SUN SHINE IN
TTITLE5=THERE GOES MY EVERYTHING
TTITLE6=CALL ON ME
TTITLE7=SOMETHING
TTITLE8=A MAN WITHOUT LOVE
TTITLE9=PUT YOUR HAND IN THE HAND
TTITLE10=PRETTY RIBBON
TTITLE11=MY CHERIE AMOUR
TTITLE12=THE WAY IT USED TO BE
TTITLE13=SPANISH EYES
TTITLE14=LES BICYCLEETTE DE BELSIZE
TTITLE15=THE LAST WALTZ
EXTD=
EXTT0=
EXTT1=
EXTT2=
EXTT3=
EXTT4=
EXTT5=
EXTT6=
EXTT7=
EXTT8=
EXTT9=
EXTT10=
EXTT11=
EXTT12=
EXTT13=
EXTT14=
EXTT15=
PLAYORDER=
